<svg xmlns="http://www.w3.org/2000/svg" width="1200" height="800" viewBox="0 0 1200 800" role="img" aria-labelledby="title desc">
  <title id="title">MarketMind Case Placeholder</title>
  <desc id="desc">Neutral illustration used when no company image is available.</desc>
  <defs>
    <linearGradient id="bg" x1="0%" y1="0%" x2="100%" y2="100%">
      <stop offset="0%" stop-color="#f5f7fa" />
      <stop offset="100%" stop-color="#e4e8f0" />
    </linearGradient>
    <linearGradient id="accent" x1="0%" y1="0%" x2="0%" y2="100%">
      <stop offset="0%" stop-color="#6c78ff" stop-opacity="0.25" />
      <stop offset="100%" stop-color="#4e5ae6" stop-opacity="0.45" />
    </linearGradient>
    <linearGradient id="spark" x1="0%" y1="0%" x2="100%" y2="0%">
      <stop offset="0%" stop-color="#8aa0ff" stop-opacity="0.35" />
      <stop offset="100%" stop-color="#6b7fff" stop-opacity="0.15" />
    </linearGradient>
    <clipPath id="card">
      <rect x="260" y="170" width="680" height="460" rx="36" />
    </clipPath>
  </defs>
  <rect width="1200" height="800" fill="url(#bg)" />
  <g opacity="0.6">
    <circle cx="250" cy="160" r="120" fill="url(#accent)" />
    <circle cx="990" cy="640" r="140" fill="url(#accent)" />
  </g>
  <g clip-path="url(#card)" transform="translate(0 6)">
    <rect x="260" y="164" width="680" height="472" rx="36" fill="#ffffff" opacity="0.92" />
    <rect x="260" y="164" width="680" height="472" rx="36" fill="url(#spark)" opacity="0.3" />
    <g transform="translate(340 244)">
      <rect x="0" y="0" width="520" height="320" rx="28" fill="#f3f4fb" />
      <g transform="translate(70 54)" opacity="0.75">
        <path d="M36 220c42-80 118-132 204-132 88 0 164 54 206 136" fill="none" stroke="#6c78ff" stroke-width="14" stroke-linecap="round" stroke-linejoin="round" />
        <path d="M44 162l60-60 72 76 96-124 104 160" fill="none" stroke="#2e3c8f" stroke-width="14" stroke-linecap="round" stroke-linejoin="round" />
        <circle cx="44" cy="162" r="16" fill="#6c78ff" opacity="0.65" />
        <circle cx="204" cy="84" r="16" fill="#6c78ff" opacity="0.65" />
        <circle cx="320" cy="224" r="16" fill="#6c78ff" opacity="0.65" />
        <circle cx="432" cy="120" r="16" fill="#6c78ff" opacity="0.65" />
      </g>
    </g>
    <g transform="translate(360 600)" opacity="0.6">
      <rect x="0" y="0" width="160" height="28" rx="14" fill="#6c78ff" opacity="0.25" />
      <rect x="184" y="0" width="240" height="28" rx="14" fill="#6c78ff" opacity="0.35" />
      <rect x="448" y="0" width="96" height="28" rx="14" fill="#6c78ff" opacity="0.25" />
    </g>
  </g>
  <g transform="translate(0 -24)" opacity="0.28">
    <path d="M180 720c120-52 248-78 380-78 132 0 260 26 380 78" fill="none" stroke="#6c78ff" stroke-width="32" stroke-linecap="round" />
  </g>
</svg>
